<svg width="46" height="62" viewBox="0 0 46 62" fill="none" xmlns="http://www.w3.org/2000/svg">
<path d="M45.9273 28.3449C45.8209 27.8693 45.6003 27.4269 45.2845 27.0557C44.9687 26.6846 44.5672 26.396 44.1148 26.2149L31.3198 21.0974L33.9673 3.44487C34.0645 2.81099 33.956 2.16264 33.6577 1.59493C33.3595 1.02723 32.8871 0.570035 32.31 0.290422C31.7329 0.0108079 31.0814 -0.0765121 30.451 0.0412698C29.8206 0.159052 29.2445 0.475737 28.8073 0.944873L0.807319 30.9449C0.474489 31.3013 0.23357 31.7335 0.105425 32.204C-0.0227201 32.6746 -0.0342259 33.1692 0.0719031 33.6452C0.178032 34.1212 0.398596 34.5641 0.714494 34.9357C1.03039 35.3072 1.4321 35.5961 1.88482 35.7774L14.6798 40.8949L12.0323 58.5549C11.9351 59.1888 12.0436 59.8371 12.3419 60.4048C12.6402 60.9725 13.1125 61.4297 13.6896 61.7093C14.2667 61.9889 14.9183 62.0763 15.5487 61.9585C16.179 61.8407 16.7551 61.524 17.1923 61.0549L45.1923 31.0549C45.5266 30.6974 45.7683 30.2635 45.8964 29.7912C46.0246 29.3188 46.0352 28.8223 45.9273 28.3449ZM19.3998 49.8874L20.9673 39.4449C21.0675 38.7765 20.9391 38.0939 20.6028 37.5077C20.2666 36.9215 19.7423 36.4659 19.1148 36.2149L8.18482 31.8424L26.5998 12.1124L25.0323 22.5549C24.9322 23.2232 25.0606 23.9058 25.3968 24.4921C25.733 25.0783 26.2574 25.5338 26.8848 25.7849L37.8148 30.1574L19.3998 49.8874Z" fill="#0891B2"/>
</svg>
