<svg width="56" height="44" viewBox="0 0 56 44" fill="none" xmlns="http://www.w3.org/2000/svg">
<path d="M54 0.0625023H39.7C36.6313 0.0625023 33.6312 0.943752 31.05 2.60625L28 4.5625L24.95 2.60625C22.3713 0.944071 19.368 0.0608617 16.3 0.0625023H2C0.89375 0.0625023 0 0.956252 0 2.0625V37.5625C0 38.6688 0.89375 39.5625 2 39.5625H16.3C19.3687 39.5625 22.3688 40.4438 24.95 42.1063L27.725 43.8938C27.8062 43.9438 27.9 43.975 27.9937 43.975C28.0875 43.975 28.1813 43.95 28.2625 43.8938L31.0375 42.1063C33.625 40.4438 36.6313 39.5625 39.7 39.5625H54C55.1063 39.5625 56 38.6688 56 37.5625V2.0625C56 0.956252 55.1063 0.0625023 54 0.0625023ZM16.3 35.0625H4.5V4.5625H16.3C18.5125 4.5625 20.6625 5.19375 22.5187 6.3875L25.5688 8.34375L26 8.625V37.5C23.025 35.9 19.7 35.0625 16.3 35.0625ZM51.5 35.0625H39.7C36.3 35.0625 32.975 35.9 30 37.5V8.625L30.4313 8.34375L33.4813 6.3875C35.3375 5.19375 37.4875 4.5625 39.7 4.5625H51.5V35.0625ZM20.8062 12.5625H9.19375C8.95 12.5625 8.75 12.775 8.75 13.0313V15.8438C8.75 16.1 8.95 16.3125 9.19375 16.3125H20.8C21.0437 16.3125 21.2437 16.1 21.2437 15.8438V13.0313C21.25 12.775 21.05 12.5625 20.8062 12.5625ZM34.75 13.0313V15.8438C34.75 16.1 34.95 16.3125 35.1937 16.3125H46.8C47.0438 16.3125 47.2438 16.1 47.2438 15.8438V13.0313C47.2438 12.775 47.0438 12.5625 46.8 12.5625H35.1937C34.95 12.5625 34.75 12.775 34.75 13.0313ZM20.8062 21.3125H9.19375C8.95 21.3125 8.75 21.525 8.75 21.7813V24.5938C8.75 24.85 8.95 25.0625 9.19375 25.0625H20.8C21.0437 25.0625 21.2437 24.85 21.2437 24.5938V21.7813C21.25 21.525 21.05 21.3125 20.8062 21.3125ZM46.8063 21.3125H35.1937C34.95 21.3125 34.75 21.525 34.75 21.7813V24.5938C34.75 24.85 34.95 25.0625 35.1937 25.0625H46.8C47.0438 25.0625 47.2438 24.85 47.2438 24.5938V21.7813C47.25 21.525 47.05 21.3125 46.8063 21.3125Z" fill="#2563EB"/>
</svg>
