<svg width="54" height="32" viewBox="0 0 54 32" fill="none" xmlns="http://www.w3.org/2000/svg">
<path d="M5.52807 19.5147C5.28933 20.1664 4.80586 20.6994 4.18038 21.0004C3.5549 21.3014 2.83671 21.3466 2.17842 21.1265C1.52012 20.9064 0.973597 20.4382 0.654972 19.8216C0.336346 19.2049 0.270731 18.4883 0.472068 17.824C0.569744 17.5314 0.68007 17.2377 0.802735 16.9547C1.01607 16.448 1.33073 15.7493 1.76273 14.9227C2.64274 13.2693 4.0134 11.0667 6.03473 8.864C10.1147 4.41067 16.7974 0 27.0001 0C37.2027 0 43.8854 4.41067 47.9654 8.864C50.1415 11.2545 51.9076 13.9882 53.1921 16.9547L53.4374 17.5573C53.4534 17.6 53.5067 17.8773 53.5601 18.144L53.6667 18.6667C53.6667 18.6667 54.1147 20.4427 51.8427 21.1947C51.1736 21.4181 50.4433 21.3673 49.8115 21.0535C49.1798 20.7396 48.6982 20.1882 48.4721 19.52V19.504L48.4401 19.4187L48.2747 19.0027C47.2271 16.6067 45.7949 14.398 44.0347 12.464C40.7814 8.928 35.4641 5.33333 27.0001 5.33333C18.5361 5.33333 13.2187 8.92267 9.9654 12.4693C8.20577 14.4017 6.77358 16.6086 5.7254 19.0027L5.5654 19.4187L5.52807 19.5147ZM16.3334 21.3333C16.3334 18.5044 17.4572 15.7912 19.4576 13.7909C21.458 11.7905 24.1711 10.6667 27.0001 10.6667C29.829 10.6667 32.5422 11.7905 34.5425 13.7909C36.5429 15.7912 37.6667 18.5044 37.6667 21.3333C37.6667 24.1623 36.5429 26.8754 34.5425 28.8758C32.5422 30.8762 29.829 32 27.0001 32C24.1711 32 21.458 30.8762 19.4576 28.8758C17.4572 26.8754 16.3334 24.1623 16.3334 21.3333Z" fill="#059669"/>
</svg>
