<svg width="64" height="64" viewBox="0 0 64 64" fill="none" xmlns="http://www.w3.org/2000/svg">
<path fill-rule="evenodd" clip-rule="evenodd" d="M63.6668 20.2608C63.6668 31.2682 54.7051 40.1918 43.6534 40.1918C41.6394 40.1918 37.0478 39.7295 34.8153 37.8738L32.0223 40.6542C30.3788 42.2913 30.8221 42.7727 31.5536 43.5643C31.8576 43.8968 32.2123 44.28 32.4878 44.8278C32.4878 44.8278 34.8153 48.0705 32.4878 51.3163C31.0913 53.1688 27.1804 55.7623 22.7154 51.3163L21.7844 52.241C21.7844 52.241 24.5743 55.4868 22.2499 58.7327C20.8534 60.5852 17.1294 62.4377 13.8709 59.195L10.6156 62.4377C8.37994 64.6638 5.65028 63.3655 4.56728 62.4377L1.77111 59.6573C-0.835058 57.0607 0.684942 54.2487 1.77111 53.1657L25.9708 29.0673C25.9708 29.0673 23.6433 25.3623 23.6433 20.264C23.6433 9.25667 32.6049 0.333008 43.6566 0.333008C54.7083 0.333008 63.6668 9.25668 63.6668 20.2608ZM43.6566 27.2148C45.5037 27.2182 47.2766 26.4879 48.5854 25.1844C49.8942 23.881 50.6317 22.1111 50.6359 20.264C50.6343 19.3491 50.4524 18.4435 50.1008 17.5989C49.7491 16.7543 49.2346 15.9873 48.5865 15.3415C47.9384 14.6958 47.1695 14.184 46.3236 13.8355C45.4777 13.4869 44.5715 13.3083 43.6566 13.31C42.7417 13.3083 41.8355 13.4869 40.9896 13.8355C40.1437 14.184 39.3748 14.6958 38.7267 15.3415C38.0786 15.9873 37.5641 16.7543 37.2124 17.5989C36.8608 18.4435 36.6789 19.3491 36.6773 20.264C36.6815 22.1111 37.419 23.881 38.7278 25.1844C40.0366 26.4879 41.8095 27.2182 43.6566 27.2148Z" fill="#9850FE"/>
</svg>
