<svg width="62" height="62" viewBox="0 0 62 62" fill="none" xmlns="http://www.w3.org/2000/svg">
<path fill-rule="evenodd" clip-rule="evenodd" d="M37.6435 10.5437C42.1528 5.12866 48.1252 0.916992 56.3332 0.916992C57.5929 0.916992 58.8011 1.41744 59.6919 2.30824C60.5827 3.19903 61.0832 4.40721 61.0832 5.66699C61.0832 6.92677 60.5827 8.13495 59.6919 9.02575C58.8011 9.91655 57.5929 10.417 56.3332 10.417C51.8777 10.417 48.3468 12.5387 44.9395 16.6237C41.4055 20.867 38.4795 26.6557 35.2495 33.122L35.1038 33.4133C32.0448 39.5345 28.6723 46.2827 24.3562 51.457C19.8468 56.872 13.8745 61.0837 5.6665 61.0837C4.40673 61.0837 3.19854 60.5832 2.30775 59.6924C1.41695 58.8016 0.916504 57.5934 0.916504 56.3337C0.916504 55.0739 1.41695 53.8657 2.30775 52.9749C3.19854 52.0841 4.40673 51.5837 5.6665 51.5837C10.122 51.5837 13.6528 49.462 17.0602 45.377C20.5942 41.1337 23.5202 35.345 26.7502 28.8787L26.8958 28.5873C29.9548 22.4662 33.3273 15.718 37.6435 10.5437Z" fill="#9850FE"/>
</svg>
