<svg width="54" height="54" viewBox="0 0 54 54" fill="none" xmlns="http://www.w3.org/2000/svg">
<path d="M27.0002 53.6663C23.3557 53.6663 19.9113 52.9659 16.6668 51.565C13.4224 50.1641 10.5895 48.253 8.16816 45.8317C5.74683 43.4103 3.83572 40.5774 2.43483 37.333C1.03394 34.0886 0.333496 30.6441 0.333496 26.9997C0.333496 23.3108 1.05616 19.8441 2.5015 16.5997C3.94683 13.3552 5.90238 10.533 8.36816 8.13301C10.8339 5.73301 13.7113 3.83345 17.0002 2.43434C20.2891 1.03523 23.8002 0.334786 27.5335 0.333008C31.0891 0.333008 34.4446 0.944563 37.6002 2.16767C40.7557 3.39079 43.5228 5.07967 45.9015 7.23434C48.2802 9.38901 50.169 11.9446 51.5682 14.901C52.9673 17.8575 53.6668 21.0459 53.6668 24.4663C53.6668 29.5775 52.1113 33.5001 49.0002 36.2343C45.889 38.9686 42.1113 40.3348 37.6668 40.333H32.7335C32.3335 40.333 32.0562 40.4441 31.9015 40.6663C31.7468 40.8886 31.6686 41.133 31.6668 41.3997C31.6668 41.933 32.0002 42.7001 32.6668 43.701C33.3335 44.7019 33.6668 45.8459 33.6668 47.133C33.6668 49.3552 33.0562 50.9997 31.8348 52.0663C30.6135 53.133 29.0019 53.6663 27.0002 53.6663ZM12.3335 29.6663C13.4891 29.6663 14.4446 29.2886 15.2002 28.533C15.9557 27.7775 16.3335 26.8219 16.3335 25.6663C16.3335 24.5108 15.9557 23.5552 15.2002 22.7997C14.4446 22.0441 13.4891 21.6663 12.3335 21.6663C11.1779 21.6663 10.2224 22.0441 9.46683 22.7997C8.71127 23.5552 8.3335 24.5108 8.3335 25.6663C8.3335 26.8219 8.71127 27.7775 9.46683 28.533C10.2224 29.2886 11.1779 29.6663 12.3335 29.6663ZM20.3335 18.9997C21.489 18.9997 22.4446 18.6219 23.2002 17.8663C23.9557 17.1108 24.3335 16.1552 24.3335 14.9997C24.3335 13.8441 23.9557 12.8886 23.2002 12.133C22.4446 11.3775 21.489 10.9997 20.3335 10.9997C19.1779 10.9997 18.2224 11.3775 17.4668 12.133C16.7113 12.8886 16.3335 13.8441 16.3335 14.9997C16.3335 16.1552 16.7113 17.1108 17.4668 17.8663C18.2224 18.6219 19.1779 18.9997 20.3335 18.9997ZM33.6668 18.9997C34.8224 18.9997 35.7779 18.6219 36.5335 17.8663C37.289 17.1108 37.6668 16.1552 37.6668 14.9997C37.6668 13.8441 37.289 12.8886 36.5335 12.133C35.7779 11.3775 34.8224 10.9997 33.6668 10.9997C32.5113 10.9997 31.5557 11.3775 30.8002 12.133C30.0446 12.8886 29.6668 13.8441 29.6668 14.9997C29.6668 16.1552 30.0446 17.1108 30.8002 17.8663C31.5557 18.6219 32.5113 18.9997 33.6668 18.9997ZM41.6668 29.6663C42.8224 29.6663 43.7779 29.2886 44.5335 28.533C45.2891 27.7775 45.6668 26.8219 45.6668 25.6663C45.6668 24.5108 45.2891 23.5552 44.5335 22.7997C43.7779 22.0441 42.8224 21.6663 41.6668 21.6663C40.5113 21.6663 39.5557 22.0441 38.8002 22.7997C38.0446 23.5552 37.6668 24.5108 37.6668 25.6663C37.6668 26.8219 38.0446 27.7775 38.8002 28.533C39.5557 29.2886 40.5113 29.6663 41.6668 29.6663ZM27.0002 48.333C27.4002 48.333 27.7228 48.2219 27.9682 47.9997C28.2135 47.7775 28.3353 47.4886 28.3335 47.133C28.3335 46.5108 28.0002 45.7775 27.3335 44.933C26.6668 44.0886 26.3335 42.8219 26.3335 41.133C26.3335 39.2663 26.9779 37.7775 28.2668 36.6663C29.5557 35.5552 31.1335 34.9997 33.0002 34.9997H37.6668C40.6002 34.9997 43.1113 34.1446 45.2002 32.4343C47.2891 30.7241 48.3335 28.0681 48.3335 24.4663C48.3335 19.0886 46.2784 14.6103 42.1682 11.0317C38.0579 7.45301 33.1797 5.66456 27.5335 5.66634C21.489 5.66634 16.3335 7.73301 12.0668 11.8663C7.80016 15.9997 5.66683 21.0441 5.66683 26.9997C5.66683 32.9108 7.74505 37.9446 11.9015 42.101C16.0579 46.2575 21.0908 48.3348 27.0002 48.333Z" fill="#7D2AE8"/>
</svg>
